<svg xmlns="http://www.w3.org/2000/svg" viewBox="0 0 52.53 34.69"><defs><style>.cls-1{fill:#fff;}</style></defs><title>Asset 2</title><g id="Layer_2" data-name="Layer 2"><g id="Layer_1-2" data-name="Layer 1"><g id="cloudy"><path class="cls-1" d="M43,34.69H10.19A10.19,10.19,0,0,1,7,14.82c0-.1,0-.21,0-.31a9.28,9.28,0,0,1,9.26-9.26A9.17,9.17,0,0,1,19.92,6a13.37,13.37,0,0,1,24.3,9.79A9.48,9.48,0,0,1,43,34.69ZM16.26,7.91a6.62,6.62,0,0,0-6.62,6.61,6.83,6.83,0,0,0,.1,1.08L10,16.86l-1.25.25A7.54,7.54,0,0,0,10.19,32H43a6.83,6.83,0,1,0,0-13.65h-.32l-2,.14.6-1.86A10.71,10.71,0,0,0,21.59,8.38l-.66,1.25-1.2-.74A6.63,6.63,0,0,0,16.26,7.91Z"/></g></g></g></svg>