<svg xmlns="http://www.w3.org/2000/svg" viewBox="0 0 52.53 52.6"><defs><style>.cls-1{fill:#fff;}.cls-2{fill:#f5a714;}</style></defs><title>Asset 4</title><g id="Layer_2" data-name="Layer 2"><g id="Layer_1-2" data-name="Layer 1"><g id="Chance_of_a_Thunderstorm" data-name="Chance of a Thunderstorm"><path class="cls-1" d="M44.22,15.8A13.37,13.37,0,0,0,19.92,6a9.15,9.15,0,0,0-3.65-.76A9.28,9.28,0,0,0,7,14.52c0,.1,0,.2,0,.31a10.18,10.18,0,0,0,3.18,19.86h5c1.59,0,1.5-2.65,0-2.65h-5A7.54,7.54,0,0,1,8.7,17.12L10,16.86,9.75,15.6a6.71,6.71,0,0,1-.1-1.08A6.61,6.61,0,0,1,19.73,8.89l1.2.74.66-1.25a10.72,10.72,0,0,1,19.68,8.29l-.61,1.86,2.06-.13.31,0A6.83,6.83,0,1,1,43,32H37.32a1.33,1.33,0,1,0,0,2.65H43A9.48,9.48,0,0,0,44.22,15.8Z"/><path class="cls-2" d="M20.56,52.6a1.29,1.29,0,0,1-.68-.2,1.32,1.32,0,0,1-.45-1.81l7.92-13.06H19.07L28.4,24.28a1.33,1.33,0,1,1,2.17,1.53l-6.39,9.06h7.87L21.7,52A1.33,1.33,0,0,1,20.56,52.6Z"/></g></g></g></svg>