<svg xmlns="http://www.w3.org/2000/svg" viewBox="0 0 293.5 287.66"><defs><style>.cls-1{fill:#f5a714;}.cls-2{fill:#96d1ea;}.cls-3{fill:#fff;}</style></defs><title>Asset 4</title><g id="Layer_2" data-name="Layer 2"><g id="Layer_1-2" data-name="Layer 1"><g id="partlycloudy"><path class="cls-1" d="M164.68,43.47a7.55,7.55,0,0,1-7.58-7.58V7.55a7.57,7.57,0,0,1,15.14,0V35.9A7.57,7.57,0,0,1,164.68,43.47Z"/><path class="cls-1" d="M71.74,136.63H43.38a7.56,7.56,0,0,1,0-15.12H71.74a7.56,7.56,0,1,1,0,15.12Z"/><path class="cls-1" d="M286,136.64H257.61a7.57,7.57,0,1,1,0-15.13H286a7.57,7.57,0,0,1,0,15.13Z"/><path class="cls-2" d="M246,219.68l-36.34-37.84c-5.38-5.6-7.29-12.49-4.27-15.39s9.8-.7,15.18,4.91l36.34,37.84c5.32,5.54,7.23,12.43,4.23,15.31S251.28,225.22,246,219.68Z"/><path class="cls-1" d="M233.33,70.25A7.46,7.46,0,0,1,228,68a7.54,7.54,0,0,1,0-10.7l20-20A7.56,7.56,0,0,1,258.71,48l-20,20A7.59,7.59,0,0,1,233.33,70.25Z"/><path class="cls-2" d="M256.38,226.25A7.53,7.53,0,0,1,251,224l-20-20a7.56,7.56,0,0,1,10.68-10.7l20,20.06a7.53,7.53,0,0,1,0,10.68A7.38,7.38,0,0,1,256.38,226.25Z"/><path class="cls-1" d="M99.15,71.67a7.68,7.68,0,0,1-5.37-2.22l-20-20.05a7.49,7.49,0,0,1,0-10.68,7.56,7.56,0,0,1,10.7,0l20,20a7.57,7.57,0,0,1-5.35,12.92Z"/><path class="cls-3" d="M152.73,287.66H38.4a38.41,38.41,0,0,1-14-74.17A35.25,35.25,0,0,1,59.55,179.3a34.5,34.5,0,0,1,11.6,2,49.45,49.45,0,0,1,89.38,29.18,52.06,52.06,0,0,1-.35,6,35.95,35.95,0,0,1-7.45,71.11ZM59.55,194.45a20.09,20.09,0,0,0-20.07,20.07,20.33,20.33,0,0,0,.32,3.24L41,225l-7.2,1.44a23.27,23.27,0,0,0,4.61,46.08H152.73a20.82,20.82,0,1,0,0-41.63c-.32,0-.65,0-1,.06l-11.24.78,3.21-10.64a34.33,34.33,0,0,0-63-26.56l-3.77,7.15L70,197.44A19.86,19.86,0,0,0,59.55,194.45Z"/><path class="cls-2" d="M233.22,129.07a68.57,68.57,0,0,0-137.13,0,65.77,65.77,0,0,0,1,11.47,7.83,7.83,0,0,0,8.11,7.5c2.39-.11,5.59-1.45,6.48-3.72,1-2.76.38-6,0-8.8a45.45,45.45,0,0,1-.43-6.45,53.41,53.41,0,1,1,106.83,0,56.79,56.79,0,0,1-.62,6.76c-.29,2.24-.64,4.44-1.13,6.61a47.4,47.4,0,0,1-4.74,12.21,56,56,0,0,1-7.6,10.62,46.4,46.4,0,0,1-9.86,8.28,78.09,78.09,0,0,1-12,5.78c-1.69.71-3.59.77-5.23,1.6a7.79,7.79,0,0,0-3.5,3.87,7.42,7.42,0,0,0-.6,2.93,7.89,7.89,0,0,0,7.93,7.75s.06,0,.09,0C210.41,189.6,233.22,161.35,233.22,129.07Z"/></g></g></g></svg>