<svg xmlns="http://www.w3.org/2000/svg" viewBox="0 0 52.52 47.63"><defs><style>.cls-1{fill:#fff;}.cls-2{fill:#1b86d0;}</style></defs><title>Asset 5</title><g id="Layer_2" data-name="Layer 2"><g id="Layer_1-2" data-name="Layer 1"><g id="Chance_of_Rain" data-name="Chance of Rain"><path class="cls-1" d="M44.22,15.8a13.63,13.63,0,0,0,.22-2.44A13.37,13.37,0,0,0,19.92,6,9.26,9.26,0,0,0,7,14.52c0,.1,0,.2,0,.3a10.19,10.19,0,0,0,3.18,19.87h5c1.59,0,1.5-2.65,0-2.65h-5A7.54,7.54,0,0,1,8.7,17.11l1.25-.25-.2-1.26a6.3,6.3,0,0,1-.1-1.08A6.6,6.6,0,0,1,19.72,8.89l1.21.74.66-1.25a10.72,10.72,0,0,1,19.69,8.29l-.6,1.86,2.06-.14H43A6.83,6.83,0,1,1,43,32H37.31a1.33,1.33,0,1,0,0,2.65H43A9.48,9.48,0,0,0,44.22,15.8Z"/><path class="cls-2" d="M18.2,38.12a1.37,1.37,0,0,1-.76-.24A1.32,1.32,0,0,1,17.12,36l2.44-3.47a1.33,1.33,0,0,1,2.17,1.53l-2.44,3.46A1.32,1.32,0,0,1,18.2,38.12Z"/><path class="cls-2" d="M24,38.12a1.37,1.37,0,0,1-.77-.24A1.33,1.33,0,0,1,23,36l2.45-3.47a1.33,1.33,0,1,1,2.17,1.53l-2.44,3.46A1.32,1.32,0,0,1,24,38.12Z"/><path class="cls-2" d="M29.89,38.12a1.35,1.35,0,0,1-.76-.24A1.33,1.33,0,0,1,28.8,36l2.44-3.47a1.33,1.33,0,1,1,2.17,1.53L31,37.56A1.32,1.32,0,0,1,29.89,38.12Z"/><path class="cls-2" d="M12,47.63a1.32,1.32,0,0,1-1.08-2.09l2.43-3.46a1.33,1.33,0,0,1,2.17,1.53L13,47.07A1.33,1.33,0,0,1,12,47.63Z"/><path class="cls-2" d="M17.8,47.63a1.31,1.31,0,0,1-.77-.24,1.33,1.33,0,0,1-.32-1.85l2.44-3.46a1.32,1.32,0,0,1,2.16,1.53l-2.44,3.47A1.31,1.31,0,0,1,17.8,47.63Z"/><path class="cls-2" d="M23.64,47.63a1.32,1.32,0,0,1-1.07-2.09L25,42.08a1.33,1.33,0,0,1,2.16,1.53l-2.44,3.47A1.34,1.34,0,0,1,23.64,47.63Z"/></g></g></g></svg>