<svg xmlns="http://www.w3.org/2000/svg" viewBox="0 0 42.08 24.27"><defs><style>.cls-1{fill:#fff;}</style></defs><title>Asset 8</title><g id="Layer_2" data-name="Layer 2"><g id="Layer_1-2" data-name="Layer 1"><g id="fog"><path class="cls-1" d="M29.84,16.52a14.75,14.75,0,0,1-8.66-2.71C14,8.76,8,8.48,1.6,12.9a1,1,0,0,1-1.42-.25,1,1,0,0,1,.26-1.43C7.53,6.3,14.5,6.6,22.36,12.14c6.17,4.35,13.29,1.88,18.19-1a1,1,0,0,1,1,1.77A23.68,23.68,0,0,1,29.84,16.52Z"/><path class="cls-1" d="M29.84,24.27a14.75,14.75,0,0,1-8.66-2.7C14,16.51,8,16.22,1.6,20.65A1,1,0,1,1,.44,19c7.09-4.92,14.06-4.63,21.92.93,6.16,4.35,13.29,1.87,18.19-1a1,1,0,1,1,1,1.77A23.7,23.7,0,0,1,29.84,24.27Z"/><path class="cls-1" d="M29.84,8.78a14.74,14.74,0,0,1-8.66-2.7C14,1,8,.74,1.6,5.16A1,1,0,0,1,.44,3.48C7.53-1.44,14.5-1.15,22.36,4.4c6.16,4.36,13.29,1.88,18.19-1a1,1,0,0,1,1,1.77A23.7,23.7,0,0,1,29.84,8.78Z"/></g></g></g></svg>